inDegrees=no
num_controls=7
num_derivatives=13
num_iterations=250
num_multipliers=7
num_parameters=0
num_slacks=7
num_states=26
objective=5.808411
objective_accelerations=0.666441
objective_balance=0.131299
objective_effort=0.428733
objective_height=4.507830
objective_ligament=0.074107
solver_duration=2833.065519
status=Solve_Succeeded
success=true
DataType=double
version=3
OpenSimVersion=4.4-2022-07-23-0e9fedc
endheader
time	/jointset/ground_pelvis/pelvis_tilt/value	/jointset/ground_pelvis/pelvis_tx/value	/jointset/ground_pelvis/pelvis_ty/value	/jointset/hip_l/hip_flexion_l/value	/jointset/hip_l/hip_adduction_l/value	/jointset/hip_l/hip_rotation_l/value	/jointset/back/lumbar_extension/value	/jointset/patellofemoral_l/patellar_flexion_l/value	/jointset/knee_l/knee_flexion_l/value	/jointset/knee_l/knee_adduction_l/value	/jointset/knee_l/knee_rotation_l/value	/jointset/ankle_l/ankle_angle_l/value	/jointset/subtalar_l/subtalar_angle_l/value	/jointset/ground_pelvis/pelvis_tilt/speed	/jointset/ground_pelvis/pelvis_tx/speed	/jointset/ground_pelvis/pelvis_ty/speed	/jointset/hip_l/hip_flexion_l/speed	/jointset/hip_l/hip_adduction_l/speed	/jointset/hip_l/hip_rotation_l/speed	/jointset/back/lumbar_extension/speed	/jointset/patellofemoral_l/patellar_flexion_l/speed	/jointset/knee_l/knee_flexion_l/speed	/jointset/knee_l/knee_adduction_l/speed	/jointset/knee_l/knee_rotation_l/speed	/jointset/ankle_l/ankle_angle_l/speed	/jointset/subtalar_l/subtalar_angle_l/speed	/forceset/tau_hip_flexion_l	/forceset/tau_hip_adduction_l	/forceset/tau_hip_rotation_l	/forceset/tau_knee_flexion_l	/forceset/tau_ankle_angle_l	/forceset/tau_subtalar_angle_l	/forceset/tau_lumbar_extension	lambda_cid13_p0	lambda_cid13_p1	lambda_cid13_p2	lambda_cid13_p3	lambda_cid13_p4	lambda_cid13_p5	lambda_cid14_p0	/jointset/ground_pelvis/pelvis_tilt/accel	/jointset/ground_pelvis/pelvis_tx/accel	/jointset/ground_pelvis/pelvis_ty/accel	/jointset/hip_l/hip_flexion_l/accel	/jointset/hip_l/hip_adduction_l/accel	/jointset/hip_l/hip_rotation_l/accel	/jointset/back/lumbar_extension/accel	/jointset/patellofemoral_l/patellar_flexion_l/accel	/jointset/knee_l/knee_flexion_l/accel	/jointset/knee_l/knee_adduction_l/accel	/jointset/knee_l/knee_rotation_l/accel	/jointset/ankle_l/ankle_angle_l/accel	/jointset/subtalar_l/subtalar_angle_l/accel	gamma_cid13_p0	gamma_cid13_p1	gamma_cid13_p2	gamma_cid13_p3	gamma_cid13_p4	gamma_cid13_p5	gamma_cid14_p0
0.5	-0.4258822470193207	-0.04327523144546912	0.7656150684369757	1.23549535879733	-0.3074429655707148	-0.02451897858215889	-0.3264554416651538	0.7441501368607465	0.7441501368607438	-0.1706652727245583	0.1745260422397122	0.108009922334832	-0.03292675741521987	-0.6858734957266212	-0.2040542653084391	-0.4975212519382401	2.315540998181708	-0.01226816824820991	0.6785502756335385	-0.6276819351867425	1.925529045124924	1.925529045124926	-0.01106128881760644	1.874199039653148e-05	0.40924919930623	0.04705696120223953	-0.2364909100415602	0.02506075566661024	-0.02120405905463849	-0.2002787854817221	0.08107348959766815	0.04607410520461484	0.2146556008802139	-11.98558453011876	-20.98054770661144	6.448164875229513	-0.395628137061936	-605.2918209468178	-58.58014271093565	-25.06732514521306	0.5799124432675081	0.589854548833505	-0.362133399193144	-1.440387678741477	0.653856060665386	-0.3637710206147846	1.721059755346247	-1.215439504621657	-1.215439504621654	-0.007784084369364494	-0.01107613221866726	-0.3378935613014341	0.6425940608274771	-3.725650422814214e-07	-9.866674753022454e-07	1.83743922898896e-06	1.25170694838746e-07	-4.41791771938979e-07	-2.817518786414879e-07	-3.795875726530282e-07
0.51	-0.4327105268280563	-0.04528603487699482	0.7606228234222725	1.258574609756163	-0.3075345289723179	-0.01775165994442489	-0.3326461445445552	0.7633414809096927	0.7633414809096971	-0.1707793336417704	0.1745261993429658	0.1120842944829455	-0.03242585447765887	-0.6796957308189081	-0.1980892341848897	-0.5008237528500767	2.300002006214461	-0.00606700679786108	0.6748265626045779	-0.6103887079412834	1.912476956034972	1.912476956034973	-0.01174286580082032	1.684267217227798e-05	0.4055542777086762	0.05310063799488891	-0.2444405672928494	0.02568168087255926	-0.02122963272668895	-0.2016342397290134	0.0791068554757801	0.04646760181562412	0.2208544742599999	-12.85172970342084	-20.90355797460897	6.325972619785238	-0.1477453399738724	-609.8423169963113	-58.17045234150011	-23.91701079784022	0.6496783439984338	0.6024295879891898	-0.2987928479458438	-1.656783064071558	0.5997179629330324	-0.3900398283403806	1.743944121989679	-1.389441335541088	-1.389441335541265	-0.09721856617708778	0.005503351511000054	-0.3959439424114087	0.5817471244099696	-3.452710140689524e-07	-8.97980376386636e-07	1.735061557972275e-06	1.170563058994607e-07	-4.022785702624325e-07	-2.243207362858643e-07	-3.562795847182586e-07
0.52	-0.4394744350218198	-0.04723666755851038	0.7556006565162975	1.281489245173652	-0.3075647864042751	-0.01102425211384055	-0.3386618171689335	0.7823944345228682	0.7823944345228794	-0.1708999851409903	0.1745263874896647	0.1161195869183977	-0.03186521624498615	-0.6729991727321852	-0.1920201153064101	-0.5035056301925817	2.282617889913004	-6.974318976749738e-06	0.670568114203471	-0.5926758841820661	1.897850957970657	1.897850957970657	-0.01237940521922199	2.49506793603802e-05	0.4014332567739603	0.05900402022459009	-0.2523902245441442	0.02630260607850882	-0.02125520639874138	-0.2029896939763031	0.07714022135389366	0.04686109842663436	0.2270533476397794	-13.7209646069291	-20.82966407291715	6.208429401493682	0.08078073613305072	-614.4650742082572	-57.84013188147936	-22.76447345281035	0.6836710790694409	0.6106720998195423	-0.2380086853268075	-1.809412545583545	0.625630266372487	-0.4707180950440121	1.804979058097824	-1.530221299494081	-1.530221299494083	0.00122342859308083	-0.009074667136193209	-0.4231134287338779	0.6145351482378366	-3.184551763684436e-07	-8.102996511543636e-07	1.632463705339765e-06	1.093703365152387e-07	-3.651242213250891e-07	-1.706815425632523e-07	-3.329021318441364e-07
0.53	-0.4461689074677999	-0.04912615990389711	0.7505547840127262	1.304221143965545	-0.3075350406173963	-0.004342050604080586	-0.3444983457810813	0.8012935230513061	0.8012935230512874	-0.1710264513561321	0.1745266402353773	0.1201116832832255	-0.03124611723904885	-0.6658143374462858	-0.1858674576604236	-0.5055623540952752	2.263467952944402	0.005927605908909253	0.6657899604139978	-0.5745754012418627	1.881715238139324	1.881715238139326	-0.01290764318330427	2.845227177450437e-05	0.3969198665500484	0.06478624632825722	-0.26015824796082	0.02670062059089954	-0.02126193914779434	-0.204470644527741	0.07530182182988678	0.04710585482545229	0.2330654854996264	-14.55233981723236	-20.69580316398568	6.079042212630703	0.3333604880198892	-619.0547381009629	-57.44041092455573	-21.61100372211103	0.7480017012585979	0.6192180802246013	-0.1735959005455035	-2.011914406805779	0.5729464934116106	-0.4939871067284664	1.820748462834209	-1.692909636988797	-1.692909636988586	-0.07898422831592755	0.0051597784217874	-0.4753797586976998	0.5555729009083639	-2.918417648520167e-07	-7.254897239263358e-07	1.528222308583241e-06	1.017942978399586e-07	-3.298491167628449e-07	-1.213504820175333e-07	-3.093504797594105e-07
0.54	-0.452789109171339	-0.05095379457617675	0.7454915259385674	1.32675271736089	-0.3074468341097559	0.002289844750619434	-0.3501522364536568	0.8200237219190244	0.8200237219189751	-0.171158027314796	0.1745269474382125	0.1240566601579186	-0.03057009466017945	-0.6581450242440497	-0.1796485806849923	-0.5069827443101586	2.24255281060351	0.01168516983339273	0.6605068831913453	-0.5561482962675538	1.864073025826557	1.86407302582656	-0.01340135392366858	3.584210385169229e-05	0.3920093587470229	0.07038873481101274	-0.2679262713775011	0.02709863510329124	-0.02126867189685202	-0.2059515950791771	0.07346342230588165	0.04735061122427167	0.2390776233594673	-15.38839933352154	-20.56429071428676	5.953650012946821	0.5745340381706223	-623.7364070978506	-57.11415758320415	-20.45831330231015	0.7805666623367334	0.6239159657085139	-0.1107419477647589	-2.162453620041372	0.5902270056919821	-0.5717027816798654	1.870303464918872	-1.831519795780901	-1.831519795780901	0.0081288733366736	-0.008297019203576507	-0.5025369445565707	0.5785876240555166	-2.654523142201058e-07	-6.438559987455574e-07	1.422162522583125e-06	9.43398846298908e-08	-2.966531761900719e-07	-7.678586668880222e-08	-2.856060966331653e-07
0.55	-0.4593303211064331	-0.05271897753467947	0.7404172490339378	1.349066624342704	-0.3073018115608288	0.008866383191366973	-0.3556203009266101	0.8385702068192022	0.8385702068191823	-0.1712940048898984	0.1745272880320136	0.1279506859968041	-0.02983880129404845	-0.6500220505808455	-0.1733829956478921	-0.507764514573121	2.219947684475492	0.01728606182510838	0.6547203617946968	-0.5374252506369926	1.844984070930843	1.844984070930844	-0.01378709715632394	3.5304121484561e-05	0.3867352398621036	0.07583500798609899	-0.2754811377015393	0.02733045976231444	-0.02125229719078547	-0.2075075059398155	0.07173409867011198	0.04743046689342614	0.2448755203173683	-16.18881487450819	-20.36439670163286	5.813920986935678	0.8357542167351113	-628.3180556297065	-56.69596775104215	-19.30833710564124	0.8394304049605764	0.628650132634425	-0.04573196842704925	-2.351712855556062	0.539893295364865	-0.5944363723441001	1.879207265045598	-1.983511297273461	-1.983511297273707	-0.06092019569184919	0.004235892856494241	-0.548936648571186	0.5223430160203825	-2.407311499550544e-07	-5.643860082172052e-07	1.321013165154558e-06	8.853788720694476e-08	-2.665647775947585e-07	-3.617180732060715e-08	-2.625826112348753e-07
0.5600000000000001	-0.4657880497675652	-0.05442135057082655	0.7353383869461058	1.371146045913963	-0.3071018054920939	0.01538259450741132	-0.3608999545126736	0.8569186165782622	0.8569186165782711	-0.1714336387521523	0.174527656862113	0.1317901531892182	-0.02905410602580954	-0.641448369451709	-0.1670865962138577	-0.5078997809506839	2.195655728492512	0.02268187379496365	0.6484414582505782	-0.5184661188895956	1.824457997602857	1.824457997602857	-0.01413261135398775	4.148936350859224e-05	0.3810976294527218	0.08106911523259332	-0.2830360040255833	0.02756228442133886	-0.02123592248472436	-0.209063416800452	0.0700047750343442	0.0475103225625824	0.2506734172752626	-16.99502937433338	-20.16610366133056	5.677436765521674	1.091167642167197	-633.0047835124319	-56.34439178978226	-18.16334621522828	0.8707081555231634	0.6300788450953416	0.01855882931514688	-2.49981959103383	0.5492110013199045	-0.6701792111739502	1.917520688286035	-2.118943482235165	-2.118943482235167	0.01617468033498442	-0.006952374325339546	-0.5752352494490777	0.5361544383371319	-2.180119293302341e-07	-4.875124992717646e-07	1.225756322011849e-06	8.471878872854477e-08	-2.402054293723963e-07	-2.984151050551708e-10	-2.404242031101316e-07
0.5700000000000001	-0.4721579261280731	-0.05606067160143379	0.7302614022486525	1.392974407471994	-0.306848744417057	0.02183355894859929	-0.3659889057875075	0.8750547749760694	0.8750547749761107	-0.1715761994030094	0.1745280346534885	0.1355715464613475	-0.0282179941653673	-0.6324570476202546	-0.1607780030031317	-0.5073883418223167	2.169748228029702	0.02789274966940392	0.6416725187580292	-0.4992998913286085	1.802545413153942	1.802545413153942	-0.01437193169656945	3.745547437389607e-05	0.3751264997919107	0.08611314404206047	-0.2903405124972014	0.02764055865918785	-0.02119418523862338	-0.2106610983131781	0.06836828026109316	0.04744722105110502	0.2562262776720519	-17.76672443418196	-19.90890276837029	5.528286728169104	1.364348342007179	-637.5347693338626	-55.91617663534932	-17.02577768746408	0.9237988471452853	0.6312071064320799	0.08371390322461175	-2.676497394365446	0.5012623215806982	-0.6922884503653056	1.919810502296683	-2.261610668897113	-2.26161066889708	-0.04288771945687998	0.003133612822391779	-0.6162293936970282	0.4824433115496861	-1.959791436448575e-07	-4.116491157654431e-07	1.132954534411468e-06	8.139102053667945e-08	-2.150744470408607e-07	3.21732188932237e-08	-2.185448364548319e-07
0.58	-0.4784357983402281	-0.05763691519045967	0.7251927874322086	1.414535637601303	-0.3065447272950606	0.0282144265684476	-0.3708854674442732	0.8929649685808529	0.8929649685809257	-0.1717209337228731	0.1745284246077783	0.1392915929230087	-0.02733265877497074	-0.623047539781252	-0.1544711078975835	-0.5062258047488645	2.142229442748453	0.03287308318682806	0.6344220939826836	-0.479988195275955	1.779265038997933	1.779265038997933	-0.01456734515523675	4.392194643636445e-05	0.3688282673591042	0.09091382122345455	-0.2976450209688258	0.02771883289703622	-0.02115244799252338	-0.2122587798259031	0.06673178548784334	0.04738411953962725	0.2617791380688345	-18.54445739729107	-19.65278364116819	5.381753325512498	1.632977449084724	-642.1710807548425	-55.54710951892849	-15.89925899118849	0.9543453570327739	0.6297392240597763	0.1487784183322121	-2.822076554721931	0.5031025299166733	-0.766476267733271	1.946614386619329	-2.392501423653855	-2.392501423653855	0.02495605711786289	-0.004852302085901794	-0.6406558038481465	0.4874841127225197	-1.748403197410822e-07	-3.371012444589055e-07	1.043350028447606e-06	7.870312434588253e-08	-1.915431970322621e-07	6.02146561434258e-08	-1.970288726434595e-07
